<svg version="1.1" viewBox="0 0 500 500" xmlns="http://www.w3.org/2000/svg">
 <defs>
  <path id="XT" d="m65 108.73v64.36l25.091-6.9086c1.1572-25.487-5.0008-34.728 21.204-35.517 7.493 0.74199 13.543 2.7173 18.065 6.0067 6.0183 4.071 11.325 9.4719 15.928 16.198l68.094 101.44-59.607 72.216h0.0174c-6.1924 7.4294-13.007 13.71-20.437 18.841-7.2575 4.9562-13.415 9.204-25.452 12.744l-3.4903 16.469h96.919l-3.4904-17.001c-10.09-0.88663-14.213-2.5633-19.346-5.0416-4.9564-2.6549-7.4408-5.9276-7.4408-9.8217 0-1.5935 0.62649-3.7214 1.867-6.3766 1.4171-2.6553 2.738-4.8676 3.9774-6.6381 0.035-0.07 0.07-0.105 0.105-0.17412l48.342-57.398c13.214 19.58 29.752 44.516 43.012 64.063 22.088 31.914 40.913 43.128 60.834 43.084 29.088-0.07 46.517-28.565 46.412-47.179l-5.5559-12.428c-5.9171 10.064-8.9135 14.783-16.352 17.714-14.491 5.7078-21.839-4.132-31.351-17.443l-60.689-90.913 61.898-73.524c2.6412-3.1786 9.0884-8.7402 16.685-13.511 7.2236-4.7037 16.809-8.6958 29.844-11.247 24.528 0.82512 17.386 7.9131 19.833 35.436l25.082 6.9086v-64.36zm155.14 21.853h61.925c2.9865 0.17413 5.9032 0.45063 8.7756 1.11 5.1428 1.178 9.8745 3.5995 11.157 8.1984 1.2828 4.5997-2.6519 9.5454-5.3212 13.52-5e-3 9e-3 -0.0175 0.0174-0.0175 0.035l-47.233 57.226-39.269-58.823c-4.1781-6.2634-8.4535-14.304-0.0174-19.409 1.721-1.0821 5.7845-1.5917 10.002-1.8579z"/>
   <rect id="bg" x="20" width="440" height="380" rx="20" ry="20"/>
	</defs>
 <g transform="translate(10,10)">
	<use xlink:href="#bg" y="60" fill="#991b37"/>
	<use xlink:href="#bg" y="40" fill="#ffffff"/>
	<use xlink:href="#bg" y="50" fill="#66ffe0"/>
	<use xlink:href="#XT"/>
	<use xlink:href="#XT" transform="translate(0,-4)" fill="#991b37"/>
 </g>
</svg>
