<?xml version="1.0" encoding="UTF-8" standalone="no"?>
<svg
   xmlns:dc="http://purl.org/dc/elements/1.1/"
   xmlns:cc="http://creativecommons.org/ns#"
   xmlns:rdf="http://www.w3.org/1999/02/22-rdf-syntax-ns#"
   xmlns:svg="http://www.w3.org/2000/svg"
   xmlns="http://www.w3.org/2000/svg"
   xmlns:sodipodi="http://sodipodi.sourceforge.net/DTD/sodipodi-0.dtd"
   xmlns:inkscape="http://www.inkscape.org/namespaces/inkscape"
   inkscape:export-ydpi="96"
   inkscape:export-xdpi="96"
   inkscape:export-filename="C:\Users\juande\Documents\Trabajos\ComoCrearImagen\logotipo\path54.png"
   version="1.1"
   id="svg2"
   xml:space="preserve"
   width="250"
   height="50"
   viewBox="0 0 250 50"
   sodipodi:docname="letras.svg"
   inkscape:version="1.0 (4035a4fb49, 2020-05-01)"><metadata
     id="metadata8"><rdf:RDF><cc:Work
         rdf:about=""><dc:format>image/svg+xml</dc:format><dc:type
           rdf:resource="http://purl.org/dc/dcmitype/StillImage" /><dc:title></dc:title></cc:Work></rdf:RDF></metadata><defs
     id="defs6"><clipPath
       clipPathUnits="userSpaceOnUse"
       id="clipPath36"><path
         d="m 1950.6252,2058.3579 v -26.4229 h -30.4133 v 26.3966 l 15.1495,-12.6111 z"
         id="path34" /></clipPath></defs><sodipodi:namedview
     fit-margin-bottom="0"
     fit-margin-right="0"
     fit-margin-left="0"
     fit-margin-top="0"
     inkscape:document-rotation="0"
     pagecolor="#ffffff"
     bordercolor="#666666"
     borderopacity="1"
     objecttolerance="10"
     gridtolerance="10"
     guidetolerance="10"
     inkscape:pageopacity="0"
     inkscape:pageshadow="2"
     inkscape:window-width="640"
     inkscape:window-height="480"
     id="namedview4"
     showgrid="false"
     inkscape:zoom="3.3708263"
     inkscape:cx="124.5"
     inkscape:cy="25"
     inkscape:current-layer="g10"><inkscape:grid
       originy="-9.4998625"
       originx="-79.423733"
       id="grid913"
       type="xygrid" /></sodipodi:namedview><g
     id="g10"
     inkscape:groupmode="layer"
     inkscape:label="_mixtim_"
     transform="matrix(1.3333333,0,0,-1.3333333,-186.91426,181.3796)"><path
       id="path14-9"
       style="fill:#991b3f;fill-opacity:1;fill-rule:nonzero;stroke:none"
       d="m 179.4857,120.4687 v -21.934 h 15.566 v 21.934 z" /><path
       id="path16-5"
       style="fill:#66ffcc;fill-opacity:1;fill-rule:nonzero;stroke:none"
       d="M 191.5084,116.9254 V 102.078 h -8.4793 v 14.8474 z" /><path
       id="path18"
       style="fill:#991b3f;fill-opacity:1;fill-rule:nonzero;stroke:none"
       d="m 179.4857,128.2537 c 0,4.297 3.484,7.781 7.7811,7.781 4.3009,0 7.7849,-3.484 7.7849,-7.781 0,-4.301 -3.484,-7.785 -7.7849,-7.785 -4.2971,0 -7.7811,3.484 -7.7811,7.785 z" /><path
       id="path20-5"
       style="fill:#66ffcc;fill-opacity:1;fill-rule:nonzero;stroke:none"
       d="m 187.2668,132.4914 c 2.3452,0 4.2416,-1.8988 4.2416,-4.2377 0,-2.3441 -1.8975,-4.2417 -4.2416,-4.2417 -2.339,0 -4.2378,1.8964 -4.2378,4.2417 0,2.3401 1.8977,4.2377 4.2378,4.2377 z" /><path
       id="path22-9"
       style="fill:#991b3f;fill-opacity:1;fill-rule:nonzero;stroke:none"
       d="m 244.9047,136.0347 h 15.563 v -10.969 h 10.968 v -15.563 h -10.968 v -10.968 h -15.563 v 10.968 h -10.969 v 15.563 h 10.969 z" /><path
       id="path24-2"
       style="fill:#66ffcc;fill-opacity:1;fill-rule:nonzero;stroke:none"
       d="m 256.9244,132.4913 v -10.9689 l 10.968,-1e-4 v -8.4764 l -10.968,1e-4 v -10.968 h -8.4763 l -1e-4,10.968 -10.9689,-1e-4 v 8.4764 l 10.9689,1e-4 1e-4,10.9689 z" /><path
       id="path26"
       style="fill:#991b3f;fill-opacity:1;fill-rule:nonzero;stroke:none"
       d="m 158.8847,120.4687 -18.699,15.566 v -37.5 h 37.5 v 37.5 z" /><path
       id="path28"
       style="fill:#66ffcc;fill-opacity:1;fill-rule:nonzero;stroke:none"
       d="M 174.1424,128.5009 V 102.078 h -30.4133 v 26.3966 l 15.1495,-12.6111 z" /><g
       transform="translate(-1776.4828,-1884.857)"
       id="g30"><g
         clip-path="url(#clipPath36)"
         id="g32"><path
           id="path38"
           style="fill:#66ffcc;fill-opacity:1;fill-rule:nonzero;stroke:none"
           d="m 1882.6645,2062.9697 v -8.824 h -8.82 l 7,-7.004 -7.004,-7.004 h 8.824 v -8.824 l 7.004,7.004 7.004,-7.004 v 8.824 h 8.824 l -7.004,7.004 7,7.004 h -8.82 v 8.824 l -7.004,-7.004 z" /><path
           id="path40"
           style="fill:#66ffcc;fill-opacity:1;fill-rule:nonzero;stroke:none"
           d="m 1882.6645,2062.9697 v -8.824 h -8.82 l 7,-7.004 -7.004,-7.004 h 8.824 v -8.824 l 7.004,7.004 7.004,-7.004 v 8.824 h 8.824 l -7.004,7.004 7,7.004 h -8.82 v 8.824 l -7.004,-7.004 z" /></g></g><path
       id="path42"
       style="fill:#991b3f;fill-opacity:1;fill-rule:nonzero;stroke:none"
       d="m 233.5607,108.3397 -9.8049,-9.805 -8.9451,8.949 -8.945,-8.949 -9.805,9.805 8.9451,8.945 -8.9411,8.945 9.801,9.805 8.945,-8.945 8.9451,8.945 9.8009,-9.805 -8.941,-8.945 z" /><path
       id="path44"
       style="fill:#66ffcc;fill-opacity:1;fill-rule:nonzero;stroke:none"
       d="m 223.7563,103.5461 -8.9456,8.9497 -8.9455,-8.9497 -4.7935,4.7935 8.9445,8.9445 -8.9416,8.9455 4.7917,4.7936 8.9444,-8.9445 8.9445,8.9445 4.7916,-4.7936 -8.9415,-8.9455 8.9444,-8.9445 z" /><path
       id="path46"
       style="fill:#991b3f;fill-opacity:1;fill-rule:nonzero;stroke:none"
       d="m 308.9867,120.4687 18.699,15.566 v -37.5 h -37.5 v 37.5 z" /><path
       id="path48"
       style="fill:#66ffcc;fill-opacity:1;fill-rule:nonzero;stroke:none"
       d="M 324.1424,128.4747 V 102.078 h -30.4133 v 26.4229 l 15.2638,-12.6375 z" /><path
       id="path50"
       style="fill:#991b3f;fill-opacity:1;fill-rule:nonzero;stroke:none"
       d="m 288.5027,128.2537 c 0,4.297 -3.485,7.781 -7.781,7.781 -4.297,0 -7.7819,-3.484 -7.7819,-7.781 0,-4.301 3.4849,-7.785 7.7819,-7.785 4.296,0 7.781,3.484 7.781,7.785 z m 0,-7.785 h -15.567 v -21.934 h 15.567 z" /><path
       id="path52"
       style="fill:#66ffcc;fill-opacity:1;fill-rule:nonzero;stroke:none"
       d="m 280.7217,124.012 c -2.3394,0 -4.2386,1.897 -4.2386,4.2417 0,2.3394 1.898,4.2377 4.2386,4.2377 2.3395,0 4.2377,-1.8979 4.2377,-4.2377 0,-2.345 -1.8994,-4.2417 -4.2377,-4.2417 z" /><path
       id="path54"
       style="fill:#66ffcc;fill-opacity:1;fill-rule:nonzero;stroke:none"
       d="m 280.7217,116.9254 h 4.2378 V 102.078 h -8.4805 v 14.8474 z" /></g></svg>
